<mxfile host="app.diagrams.net" modified="2021-03-30T05:45:59.964Z" agent="5.0 (Windows NT 10.0; Win64; x64) AppleWebKit/537.36 (KHTML, like Gecko) Chrome/89.0.4389.90 Safari/537.36" etag="3IZ14MwLvD_1lxNO2PA8" version="14.5.3" type="github">
  <diagram id="C5RBs43oDa-KdzZeNtuy" name="Page-1">
    <mxGraphModel dx="1422" dy="763" grid="1" gridSize="10" guides="1" tooltips="1" connect="1" arrows="1" fold="1" page="1" pageScale="1" pageWidth="827" pageHeight="1169" math="0" shadow="0">
      <root>
        <mxCell id="WIyWlLk6GJQsqaUBKTNV-0" />
        <mxCell id="WIyWlLk6GJQsqaUBKTNV-1" parent="WIyWlLk6GJQsqaUBKTNV-0" />
        <mxCell id="6qLcmY7h5NQr_wiigwaO-7" value="" style="edgeStyle=orthogonalEdgeStyle;rounded=0;orthogonalLoop=1;jettySize=auto;html=1;" edge="1" parent="WIyWlLk6GJQsqaUBKTNV-1" source="6qLcmY7h5NQr_wiigwaO-0" target="6qLcmY7h5NQr_wiigwaO-1">
          <mxGeometry relative="1" as="geometry" />
        </mxCell>
        <mxCell id="6qLcmY7h5NQr_wiigwaO-0" value="开始" style="strokeWidth=2;html=1;shape=mxgraph.flowchart.terminator;whiteSpace=wrap;" vertex="1" parent="WIyWlLk6GJQsqaUBKTNV-1">
          <mxGeometry x="350" y="80" width="100" height="50" as="geometry" />
        </mxCell>
        <mxCell id="6qLcmY7h5NQr_wiigwaO-8" value="" style="edgeStyle=orthogonalEdgeStyle;rounded=0;orthogonalLoop=1;jettySize=auto;html=1;" edge="1" parent="WIyWlLk6GJQsqaUBKTNV-1" source="6qLcmY7h5NQr_wiigwaO-1" target="6qLcmY7h5NQr_wiigwaO-2">
          <mxGeometry relative="1" as="geometry" />
        </mxCell>
        <mxCell id="6qLcmY7h5NQr_wiigwaO-1" value="程序初始化" style="rounded=1;whiteSpace=wrap;html=1;fontSize=12;glass=0;strokeWidth=1;shadow=0;" vertex="1" parent="WIyWlLk6GJQsqaUBKTNV-1">
          <mxGeometry x="340" y="170" width="120" height="40" as="geometry" />
        </mxCell>
        <mxCell id="6qLcmY7h5NQr_wiigwaO-9" value="" style="edgeStyle=orthogonalEdgeStyle;rounded=0;orthogonalLoop=1;jettySize=auto;html=1;" edge="1" parent="WIyWlLk6GJQsqaUBKTNV-1" source="6qLcmY7h5NQr_wiigwaO-2" target="6qLcmY7h5NQr_wiigwaO-3">
          <mxGeometry relative="1" as="geometry" />
        </mxCell>
        <mxCell id="6qLcmY7h5NQr_wiigwaO-2" value="打开BIM模型并嵌入" style="rounded=1;whiteSpace=wrap;html=1;fontSize=12;glass=0;strokeWidth=1;shadow=0;" vertex="1" parent="WIyWlLk6GJQsqaUBKTNV-1">
          <mxGeometry x="340" y="260" width="120" height="40" as="geometry" />
        </mxCell>
        <mxCell id="6qLcmY7h5NQr_wiigwaO-10" value="" style="edgeStyle=orthogonalEdgeStyle;rounded=0;orthogonalLoop=1;jettySize=auto;html=1;" edge="1" parent="WIyWlLk6GJQsqaUBKTNV-1" source="6qLcmY7h5NQr_wiigwaO-3" target="6qLcmY7h5NQr_wiigwaO-4">
          <mxGeometry relative="1" as="geometry" />
        </mxCell>
        <mxCell id="6qLcmY7h5NQr_wiigwaO-3" value="与应力传感器通信" style="rounded=1;whiteSpace=wrap;html=1;fontSize=12;glass=0;strokeWidth=1;shadow=0;" vertex="1" parent="WIyWlLk6GJQsqaUBKTNV-1">
          <mxGeometry x="340" y="350" width="120" height="40" as="geometry" />
        </mxCell>
        <mxCell id="6qLcmY7h5NQr_wiigwaO-11" value="" style="edgeStyle=orthogonalEdgeStyle;rounded=0;orthogonalLoop=1;jettySize=auto;html=1;" edge="1" parent="WIyWlLk6GJQsqaUBKTNV-1" source="6qLcmY7h5NQr_wiigwaO-4" target="6qLcmY7h5NQr_wiigwaO-5">
          <mxGeometry relative="1" as="geometry" />
        </mxCell>
        <mxCell id="6qLcmY7h5NQr_wiigwaO-13" style="edgeStyle=orthogonalEdgeStyle;rounded=0;orthogonalLoop=1;jettySize=auto;html=1;exitX=1;exitY=0.5;exitDx=0;exitDy=0;exitPerimeter=0;entryX=1;entryY=0.5;entryDx=0;entryDy=0;" edge="1" parent="WIyWlLk6GJQsqaUBKTNV-1" source="6qLcmY7h5NQr_wiigwaO-4" target="6qLcmY7h5NQr_wiigwaO-3">
          <mxGeometry relative="1" as="geometry">
            <Array as="points">
              <mxPoint x="480" y="480" />
              <mxPoint x="480" y="370" />
            </Array>
          </mxGeometry>
        </mxCell>
        <mxCell id="6qLcmY7h5NQr_wiigwaO-4" value="是否超过阈值" style="strokeWidth=2;html=1;shape=mxgraph.flowchart.decision;whiteSpace=wrap;" vertex="1" parent="WIyWlLk6GJQsqaUBKTNV-1">
          <mxGeometry x="350" y="430" width="100" height="100" as="geometry" />
        </mxCell>
        <mxCell id="6qLcmY7h5NQr_wiigwaO-12" value="" style="edgeStyle=orthogonalEdgeStyle;rounded=0;orthogonalLoop=1;jettySize=auto;html=1;" edge="1" parent="WIyWlLk6GJQsqaUBKTNV-1" source="6qLcmY7h5NQr_wiigwaO-5" target="6qLcmY7h5NQr_wiigwaO-6">
          <mxGeometry relative="1" as="geometry" />
        </mxCell>
        <mxCell id="6qLcmY7h5NQr_wiigwaO-5" value="报警" style="rounded=1;whiteSpace=wrap;html=1;fontSize=12;glass=0;strokeWidth=1;shadow=0;" vertex="1" parent="WIyWlLk6GJQsqaUBKTNV-1">
          <mxGeometry x="340" y="560" width="120" height="40" as="geometry" />
        </mxCell>
        <mxCell id="6qLcmY7h5NQr_wiigwaO-6" value="结束" style="strokeWidth=2;html=1;shape=mxgraph.flowchart.terminator;whiteSpace=wrap;" vertex="1" parent="WIyWlLk6GJQsqaUBKTNV-1">
          <mxGeometry x="350" y="640" width="100" height="50" as="geometry" />
        </mxCell>
        <mxCell id="6qLcmY7h5NQr_wiigwaO-14" value="是" style="text;html=1;align=center;verticalAlign=middle;resizable=0;points=[];autosize=1;" vertex="1" parent="WIyWlLk6GJQsqaUBKTNV-1">
          <mxGeometry x="395" y="530" width="30" height="20" as="geometry" />
        </mxCell>
        <mxCell id="6qLcmY7h5NQr_wiigwaO-15" value="否" style="text;html=1;align=center;verticalAlign=middle;resizable=0;points=[];autosize=1;" vertex="1" parent="WIyWlLk6GJQsqaUBKTNV-1">
          <mxGeometry x="450" y="410" width="30" height="20" as="geometry" />
        </mxCell>
      </root>
    </mxGraphModel>
  </diagram>
</mxfile>
